<svg width="170" height="40" viewBox="0 0 170 40" fill="none" xmlns="http://www.w3.org/2000/svg">
<rect width="170" height="40" rx="4" fill="#1BC5BD"/>
<g clip-path="url(#clip0_140_43483)">
<path opacity="0.3" d="M28 30C33.5228 30 38 25.5228 38 20C38 14.4772 33.5228 10 28 10C22.4772 10 18 14.4772 18 20C18 25.5228 22.4772 30 28 30Z" fill="white"/>
<path fill-rule="evenodd" clip-rule="evenodd" d="M27 19V15C27 14.4477 27.4477 14 28 14C28.5523 14 29 14.4477 29 15V19H33C33.5523 19 34 19.4477 34 20C34 20.5523 33.5523 21 33 21H29V25C29 25.5523 28.5523 26 28 26C27.4477 26 27 25.5523 27 25V21H23C22.4477 21 22 20.5523 22 20C22 19.4477 22.4477 19 23 19H27Z" fill="white"/>
</g>
<path d="M52.679 25.24C51.9963 25.24 51.3243 25.1653 50.663 25.016C50.0017 24.8667 49.4523 24.6587 49.015 24.392V19.912H52.855V21.56H51.047V23.336C51.4417 23.5493 51.9857 23.656 52.679 23.656C53.6177 23.656 54.327 23.4 54.807 22.888C55.287 22.376 55.527 21.6293 55.527 20.648C55.527 19.976 55.4203 19.432 55.207 19.016C54.9937 18.6 54.6417 18.2907 54.151 18.088C53.6603 17.8853 52.999 17.784 52.167 17.784C51.623 17.784 51.0683 17.8427 50.503 17.96C49.9483 18.0667 49.4843 18.2267 49.111 18.44V16.856C49.5377 16.6427 50.0443 16.4827 50.631 16.376C51.2283 16.2587 51.8577 16.2 52.519 16.2C54.1403 16.2 55.3937 16.5893 56.279 17.368C57.1643 18.136 57.607 19.2293 57.607 20.648C57.607 22.0667 57.1803 23.1867 56.327 24.008C55.4843 24.8293 54.2683 25.24 52.679 25.24ZM54.058 15.272C53.5567 15.272 53.194 15.144 52.97 14.888C52.7353 14.632 52.618 14.248 52.618 13.736V12.808H54.442V13.544C54.442 13.7147 54.474 13.832 54.538 13.896C54.602 13.9493 54.7193 13.976 54.89 13.976H58.698V15.272H54.058ZM63.466 25.24C62.6127 25.24 61.8607 25.0853 61.21 24.776C60.57 24.4667 60.074 24.04 59.722 23.496C59.3807 22.9413 59.21 22.312 59.21 21.608V16.44H61.242V21.528C61.242 22.2 61.4287 22.7227 61.802 23.096C62.1753 23.4693 62.73 23.656 63.466 23.656C64.1913 23.656 64.7407 23.4693 65.114 23.096C65.4873 22.7227 65.674 22.2 65.674 21.528V13.576H67.706V21.608C67.706 22.312 67.53 22.9413 67.178 23.496C66.8367 24.04 66.346 24.4667 65.706 24.776C65.066 25.0853 64.3193 25.24 63.466 25.24ZM72.0959 25C71.5412 25 71.1145 24.8453 70.8159 24.536C70.5279 24.216 70.3839 23.7733 70.3839 23.208V17.384C70.3839 16.616 70.2399 16.0187 69.9519 15.592C69.6745 15.1547 69.2212 14.808 68.5919 14.552V12.968H73.9679V14.664H71.2479C72.0265 15.2293 72.4159 16.152 72.4159 17.432V22.568C72.4159 22.8453 72.4745 23.0373 72.5919 23.144C72.7092 23.2507 72.9012 23.304 73.1679 23.304H73.7279V25H72.0959ZM75.085 16.44H77.117V19.864L80.813 16.44H83.149L80.813 18.6C81.677 18.824 82.2797 19.1867 82.621 19.688C82.9623 20.1893 83.133 20.856 83.133 21.688V25H81.101V21.832C81.101 21.224 80.989 20.7653 80.765 20.456C80.5517 20.1467 80.157 19.928 79.581 19.8L77.117 22.088V25H75.085V16.44ZM87.9174 25.24C86.968 25.24 86.2 25 85.6134 24.52C85.0374 24.04 84.7494 23.3627 84.7494 22.488C84.7494 21.912 84.8934 21.4053 85.1814 20.968C85.48 20.5307 85.896 20.1893 86.4294 19.944C86.9734 19.6987 87.608 19.576 88.3334 19.576C89.368 19.576 90.264 19.752 91.0214 20.104V19.72C91.0214 19.0587 90.824 18.5733 90.4294 18.264C90.0454 17.944 89.4214 17.784 88.5574 17.784C88.0347 17.784 87.5174 17.8373 87.0054 17.944C86.504 18.0507 86.0667 18.1947 85.6934 18.376V16.792C86.0347 16.632 86.504 16.4933 87.1014 16.376C87.7094 16.2587 88.3014 16.2 88.8774 16.2C90.264 16.2 91.304 16.5147 91.9974 17.144C92.6907 17.7733 93.0374 18.616 93.0374 19.672V25H91.0214V21.704C90.3067 21.3413 89.4907 21.16 88.5734 21.16C87.976 21.16 87.528 21.2773 87.2294 21.512C86.9414 21.736 86.7974 22.0667 86.7974 22.504C86.7974 22.8987 86.9307 23.192 87.1974 23.384C87.464 23.5653 87.8854 23.656 88.4614 23.656C88.824 23.656 89.1387 23.6027 89.4054 23.496V25.048C89.0107 25.176 88.5147 25.24 87.9174 25.24ZM98.848 25.24C97.5467 25.24 96.5173 24.8773 95.76 24.152C95.0133 23.416 94.64 22.344 94.64 20.936C94.64 19.9547 94.832 19.112 95.216 18.408C95.6107 17.6933 96.1707 17.1493 96.896 16.776C97.632 16.392 98.496 16.2 99.488 16.2C101.056 16.2 102.203 16.5627 102.928 17.288C103.653 18.0133 104.016 18.9573 104.016 20.12V25H101.984V20.104C101.984 19.3573 101.787 18.7867 101.392 18.392C101.008 17.9867 100.373 17.784 99.488 17.784C98.6347 17.784 97.9573 18.0613 97.456 18.616C96.9653 19.16 96.72 19.9333 96.72 20.936C96.72 21.8533 96.9333 22.536 97.36 22.984C97.7867 23.432 98.4 23.656 99.2 23.656C99.5947 23.656 99.9627 23.6027 100.304 23.496V25.048C99.888 25.176 99.4027 25.24 98.848 25.24ZM108.985 25.24C108.377 25.24 107.758 25.176 107.129 25.048C106.51 24.92 106.025 24.728 105.673 24.472V22.888C106.142 23.1653 106.659 23.3733 107.225 23.512C107.801 23.6507 108.329 23.72 108.809 23.72C109.449 23.72 109.907 23.656 110.185 23.528C110.473 23.4 110.617 23.16 110.617 22.808C110.617 22.5627 110.542 22.3707 110.393 22.232C110.243 22.0827 110.041 21.96 109.785 21.864C109.529 21.768 109.049 21.6133 108.345 21.4C107.427 21.112 106.739 20.7653 106.281 20.36C105.833 19.9547 105.609 19.4053 105.609 18.712C105.609 17.912 105.929 17.2933 106.569 16.856C107.209 16.4187 108.073 16.2 109.161 16.2C109.737 16.2 110.286 16.264 110.809 16.392C111.342 16.5093 111.779 16.6693 112.121 16.872V18.536C111.769 18.312 111.342 18.1307 110.841 17.992C110.35 17.8533 109.854 17.784 109.353 17.784C108.211 17.784 107.641 18.0933 107.641 18.712C107.641 18.936 107.71 19.1173 107.849 19.256C107.987 19.3947 108.174 19.512 108.409 19.608C108.643 19.6933 109.001 19.8107 109.481 19.96L110.009 20.12C110.691 20.3333 111.219 20.5627 111.593 20.808C111.977 21.0533 112.243 21.336 112.393 21.656C112.553 21.976 112.633 22.3707 112.633 22.84C112.633 23.5547 112.329 24.136 111.721 24.584C111.113 25.0213 110.201 25.24 108.985 25.24ZM110.194 29.4C109.468 29.4 108.908 29.2507 108.514 28.952C108.108 28.664 107.906 28.2747 107.906 27.784V27.496C107.906 27.3467 107.884 27.2453 107.842 27.192C107.799 27.1493 107.708 27.128 107.57 27.128H107.026V25.832H108.642C108.94 25.832 109.148 25.896 109.266 26.024C109.383 26.1627 109.442 26.3813 109.442 26.68V27.576C109.442 28.0027 109.671 28.216 110.13 28.216C110.578 28.216 110.802 28.0027 110.802 27.576V25.832H112.338V27.736C112.338 28.2267 112.151 28.6267 111.778 28.936C111.404 29.2453 110.876 29.4 110.194 29.4ZM118.482 25.24C117.628 25.24 116.876 25.0853 116.226 24.776C115.586 24.4667 115.09 24.04 114.738 23.496C114.396 22.9413 114.226 22.312 114.226 21.608V16.44H116.258V21.528C116.258 22.2 116.444 22.7227 116.818 23.096C117.191 23.4693 117.746 23.656 118.482 23.656C119.207 23.656 119.756 23.4693 120.13 23.096C120.503 22.7227 120.69 22.2 120.69 21.528V13.576H122.722V21.608C122.722 22.312 122.546 22.9413 122.194 23.496C121.852 24.04 121.362 24.4667 120.722 24.776C120.082 25.0853 119.335 25.24 118.482 25.24ZM124.328 23.304H124.952C125.229 23.304 125.416 23.2507 125.512 23.144C125.618 23.0373 125.672 22.84 125.672 22.552V19.784L124.552 18.456C125.693 16.952 127.256 16.2 129.24 16.2C130.562 16.2 131.576 16.4987 132.28 17.096C132.994 17.6933 133.352 18.52 133.352 19.576V25H131.32V19.736C131.32 19.0747 131.144 18.584 130.792 18.264C130.44 17.944 129.917 17.784 129.224 17.784C128.712 17.784 128.258 17.8587 127.864 18.008C127.48 18.1573 127.117 18.3813 126.776 18.68L127.704 19.784V23.192C127.704 23.7573 127.549 24.2 127.24 24.52C126.941 24.84 126.514 25 125.96 25H124.328V23.304ZM138.025 19.528C138.025 18.8987 137.897 18.4507 137.641 18.184C137.395 17.9173 136.947 17.784 136.297 17.784C135.699 17.784 135.091 17.9387 134.473 18.248V16.664C134.729 16.536 135.065 16.4293 135.481 16.344C135.907 16.248 136.323 16.2 136.729 16.2C137.827 16.2 138.654 16.4987 139.209 17.096C139.774 17.6933 140.057 18.5467 140.057 19.656V25H138.025V19.528ZM141.496 16.44H143.528L144.904 22.184L146.568 16.44H148.072L149.736 22.184L151.112 16.44H153.144L150.76 25H149.048L147.32 19.112L145.592 25H143.88L141.496 16.44Z" fill="white"/>
<defs>
<clipPath id="clip0_140_43483">
<rect width="24" height="24" fill="white" transform="translate(16 8)"/>
</clipPath>
</defs>
</svg>
