<svg width="88" height="40" viewBox="0 0 88 40" fill="none" xmlns="http://www.w3.org/2000/svg">
<rect width="88" height="40" rx="4" fill="#7E8299"/>
<path d="M32.0554 15.496H28.6794V13.816H37.4634V15.496H34.0874V25H32.0554V15.496ZM41.2175 25.24C39.7882 25.24 38.6575 24.8827 37.8255 24.168C36.9935 23.4533 36.5775 22.456 36.5775 21.176C36.5775 19.9173 36.9455 18.92 37.6815 18.184C38.4175 17.448 39.4682 17.08 40.8335 17.08C41.7295 17.08 42.4922 17.2507 43.1215 17.592C43.7615 17.9333 44.2415 18.4027 44.5615 19C44.8815 19.5867 45.0415 20.2587 45.0415 21.016V21.944H38.4975C38.6362 23.0853 39.6282 23.656 41.4735 23.656C41.9642 23.656 42.4655 23.6133 42.9775 23.528C43.4895 23.4427 43.9375 23.3253 44.3215 23.176V24.728C43.9588 24.8773 43.4895 25 42.9135 25.096C42.3482 25.192 41.7828 25.24 41.2175 25.24ZM43.1375 20.568C43.1162 19.96 42.8975 19.4907 42.4815 19.16C42.0762 18.8293 41.5162 18.664 40.8015 18.664C40.0975 18.664 39.5428 18.8347 39.1375 19.176C38.7322 19.5173 38.5188 19.9813 38.4975 20.568H43.1375ZM49.6395 25.24C49.0848 25.24 48.4928 25.176 47.8635 25.048C47.2342 24.92 46.7435 24.744 46.3915 24.52V22.808C46.8075 23.064 47.3035 23.272 47.8795 23.432C48.4555 23.5813 48.9995 23.656 49.5115 23.656C50.0235 23.656 50.3968 23.6133 50.6315 23.528C50.8662 23.432 50.9835 23.2613 50.9835 23.016C50.9835 22.824 50.9195 22.6693 50.7915 22.552C50.6742 22.424 50.4768 22.312 50.1995 22.216C49.9328 22.1093 49.5168 21.9813 48.9515 21.832C48.3115 21.6507 47.8048 21.464 47.4315 21.272C47.0688 21.08 46.7915 20.84 46.5995 20.552C46.4182 20.2533 46.3275 19.8693 46.3275 19.4C46.3275 18.632 46.6315 18.056 47.2395 17.672C47.8475 17.2773 48.6688 17.08 49.7035 17.08C50.2368 17.08 50.7648 17.1333 51.2875 17.24C51.8208 17.336 52.2368 17.4747 52.5355 17.656V19.304C52.2155 19.112 51.8262 18.9573 51.3675 18.84C50.9088 18.7227 50.4395 18.664 49.9595 18.664C49.4368 18.664 49.0422 18.7173 48.7755 18.824C48.5088 18.92 48.3755 19.112 48.3755 19.4C48.3755 19.592 48.4448 19.7467 48.5835 19.864C48.7328 19.9707 48.9248 20.0667 49.1595 20.152C49.3942 20.2267 49.8208 20.344 50.4395 20.504C51.1008 20.6853 51.6182 20.8827 51.9915 21.096C52.3648 21.3093 52.6315 21.5653 52.7915 21.864C52.9515 22.1627 53.0315 22.536 53.0315 22.984C53.0315 23.6667 52.7382 24.216 52.1515 24.632C51.5755 25.0373 50.7382 25.24 49.6395 25.24ZM57.4855 25.24C56.6428 25.24 56.0028 25.0053 55.5655 24.536C55.1282 24.0667 54.9095 23.4053 54.9095 22.552V18.856H53.7575V17.32H54.9095V15.016H56.9255V17.32H58.7655V18.856H56.9255V22.296C56.9255 22.7867 57.0162 23.1387 57.1975 23.352C57.3788 23.5547 57.7095 23.656 58.1895 23.656C58.5202 23.656 58.8455 23.5813 59.1655 23.432V24.968C58.7068 25.1493 58.1468 25.24 57.4855 25.24Z" fill="white"/>
</svg>
