<svg width="110" height="22" viewBox="0 0 110 22" fill="none" xmlns="http://www.w3.org/2000/svg">
<g clip-path="url(#clip0_4836_7541)">
<path opacity="0.3" d="M10.0013 19.3337C14.6037 19.3337 18.3346 15.6027 18.3346 11.0003C18.3346 6.39795 14.6037 2.66699 10.0013 2.66699C5.39893 2.66699 1.66797 6.39795 1.66797 11.0003C1.66797 15.6027 5.39893 19.3337 10.0013 19.3337Z" fill="white"/>
<path fill-rule="evenodd" clip-rule="evenodd" d="M9.16667 10.1667V6.83333C9.16667 6.3731 9.53976 6 10 6C10.4602 6 10.8333 6.3731 10.8333 6.83333V10.1667H14.1667C14.6269 10.1667 15 10.5398 15 11C15 11.4602 14.6269 11.8333 14.1667 11.8333H10.8333V15.1667C10.8333 15.6269 10.4602 16 10 16C9.53976 16 9.16667 15.6269 9.16667 15.1667V11.8333H5.83333C5.3731 11.8333 5 11.4602 5 11C5 10.5398 5.3731 10.1667 5.83333 10.1667H9.16667Z" fill="white"/>
</g>
<path d="M31.332 16.21C30.5013 16.21 29.8293 16 29.316 15.58C28.812 15.16 28.56 14.5673 28.56 13.802C28.56 13.298 28.686 12.8547 28.938 12.472C29.1993 12.0893 29.5633 11.7907 30.03 11.576C30.506 11.3613 31.0613 11.254 31.696 11.254C32.6013 11.254 33.3853 11.408 34.048 11.716V11.38C34.048 10.8013 33.8753 10.3767 33.53 10.106C33.194 9.826 32.648 9.686 31.892 9.686C31.4347 9.686 30.982 9.73267 30.534 9.826C30.0953 9.91933 29.7127 10.0453 29.386 10.204V8.818C29.6847 8.678 30.0953 8.55667 30.618 8.454C31.15 8.35133 31.668 8.3 32.172 8.3C32.928 8.3 33.5813 8.41667 34.132 8.65L34.748 7.95H36.708L35.266 9.602C35.63 10.0127 35.812 10.5913 35.812 11.338V16H34.048V13.116C33.4227 12.7987 32.7087 12.64 31.906 12.64C31.3833 12.64 30.9913 12.7427 30.73 12.948C30.478 13.144 30.352 13.4333 30.352 13.816C30.352 14.1613 30.4687 14.418 30.702 14.586C30.9353 14.7447 31.304 14.824 31.808 14.824C32.1253 14.824 32.4007 14.7773 32.634 14.684V16.042C32.2887 16.154 31.8547 16.21 31.332 16.21ZM40.4964 16.21C39.9644 16.21 39.4231 16.154 38.8724 16.042C38.3311 15.93 37.9064 15.762 37.5984 15.538V14.152C38.0091 14.3947 38.4618 14.5767 38.9564 14.698C39.4604 14.8193 39.9224 14.88 40.3424 14.88C40.9024 14.88 41.3038 14.824 41.5464 14.712C41.7984 14.6 41.9244 14.39 41.9244 14.082C41.9244 13.8673 41.8591 13.6993 41.7284 13.578C41.5978 13.4473 41.4204 13.34 41.1964 13.256C40.9724 13.172 40.5524 13.0367 39.9364 12.85C39.1338 12.598 38.5318 12.2947 38.1304 11.94C37.7384 11.5853 37.5424 11.1047 37.5424 10.498C37.5424 9.798 37.8224 9.25667 38.3824 8.874C38.9424 8.49133 39.6984 8.3 40.6504 8.3C41.1544 8.3 41.6351 8.356 42.0924 8.468C42.5591 8.57067 42.9418 8.71067 43.2404 8.888V10.344C42.9324 10.148 42.5591 9.98933 42.1204 9.868C41.6911 9.74667 41.2571 9.686 40.8184 9.686C39.8198 9.686 39.3204 9.95667 39.3204 10.498C39.3204 10.694 39.3811 10.8527 39.5024 10.974C39.6238 11.0953 39.7871 11.198 39.9924 11.282C40.1978 11.3567 40.5104 11.4593 40.9304 11.59L41.3924 11.73C41.9898 11.9167 42.4518 12.1173 42.7784 12.332C43.1144 12.5467 43.3478 12.794 43.4784 13.074C43.6184 13.354 43.6884 13.6993 43.6884 14.11C43.6884 14.7353 43.4224 15.244 42.8904 15.636C42.3584 16.0187 41.5604 16.21 40.4964 16.21ZM40.2102 6.606C40.2102 6.50333 40.1915 6.42867 40.1542 6.382C40.1075 6.33533 40.0282 6.312 39.9162 6.312H39.2722V5.08H40.4622C40.7795 5.08 41.0129 5.15933 41.1622 5.318C41.3115 5.46733 41.3862 5.654 41.3862 5.878V6.326H44.2562V7.488H40.2102V6.606ZM47.4902 11.212C47.4902 10.6613 47.3782 10.2693 47.1542 10.036C46.9395 9.80267 46.5475 9.686 45.9782 9.686C45.4555 9.686 44.9235 9.82133 44.3822 10.092V8.706C44.6062 8.594 44.9002 8.50067 45.2642 8.426C45.6375 8.342 46.0015 8.3 46.3562 8.3C47.3175 8.3 48.0409 8.56133 48.5262 9.084C49.0209 9.60667 49.2682 10.3533 49.2682 11.324V16H47.4902V11.212ZM50.6674 9.448H52.4454L54.0834 14.614C54.8674 14.614 55.4694 14.3947 55.8894 13.956C56.3188 13.508 56.5334 12.8733 56.5334 12.052C56.5334 11.2587 56.3888 10.666 56.0994 10.274C55.8101 9.882 55.3481 9.686 54.7134 9.686C54.3681 9.686 54.0461 9.73267 53.7474 9.826V8.468C54.1114 8.356 54.5361 8.3 55.0214 8.3C56.1134 8.3 56.9394 8.63133 57.4994 9.294C58.0688 9.95667 58.3534 10.876 58.3534 12.052C58.3534 12.8733 58.1714 13.5827 57.8074 14.18C57.4528 14.7773 56.9721 15.23 56.3654 15.538C55.7588 15.846 55.0868 16 54.3494 16H52.7394L50.6674 9.448ZM62.6641 16.21C62.0574 16.21 61.5348 16.0887 61.0961 15.846C60.6574 15.594 60.3214 15.2533 60.0881 14.824C59.8641 14.3853 59.7521 13.9 59.7521 13.368V8.51H61.5301V13.284C61.5301 14.3107 62.0761 14.824 63.1681 14.824C64.0268 14.824 64.6988 14.4413 65.1841 13.676V8.51H66.9621V16H65.2541V15.076C64.8994 15.4493 64.4934 15.734 64.0361 15.93C63.5881 16.1167 63.1308 16.21 62.6641 16.21ZM64.1308 7.488C63.6922 7.488 63.3748 7.376 63.1788 7.152C62.9735 6.928 62.8708 6.592 62.8708 6.144V5.332H64.4668V5.976C64.4668 6.12533 64.4948 6.228 64.5508 6.284C64.6068 6.33067 64.7095 6.354 64.8588 6.354H68.1908V7.488H64.1308ZM72.0408 16.21C70.9022 16.21 70.0015 15.8927 69.3388 15.258C68.6855 14.614 68.3588 13.676 68.3588 12.444C68.3588 11.5853 68.5268 10.848 68.8628 10.232C69.2082 9.60667 69.6982 9.13067 70.3328 8.804C70.9768 8.468 71.7328 8.3 72.6008 8.3C73.9728 8.3 74.9762 8.61733 75.6108 9.252C76.2455 9.88667 76.5628 10.7127 76.5628 11.73V16H74.7848V11.716C74.7848 11.0627 74.6122 10.5633 74.2668 10.218C73.9308 9.86333 73.3755 9.686 72.6008 9.686C71.8542 9.686 71.2615 9.92867 70.8228 10.414C70.3935 10.89 70.1788 11.5667 70.1788 12.444C70.1788 13.2467 70.3655 13.844 70.7388 14.236C71.1122 14.628 71.6488 14.824 72.3488 14.824C72.6942 14.824 73.0162 14.7773 73.3148 14.684V16.042C72.9508 16.154 72.5262 16.21 72.0408 16.21ZM78.2365 8.51H80.0145V11.506L83.2485 8.51H85.2925L83.2485 10.4C84.0045 10.596 84.5318 10.9133 84.8305 11.352C85.1292 11.7907 85.2785 12.374 85.2785 13.102V16H83.5005V13.228C83.5005 12.696 83.4025 12.2947 83.2065 12.024C83.0198 11.7533 82.6745 11.562 82.1705 11.45L80.0145 13.452V16H78.2365V8.51ZM91.2708 16.21C90.8041 16.21 90.3421 16.1167 89.8848 15.93C89.4368 15.734 89.0355 15.4493 88.6808 15.076V16H86.9728V8.51H88.7508V13.676C89.2361 14.4413 89.9081 14.824 90.7668 14.824C91.8681 14.824 92.4188 14.3107 92.4188 13.284V8.51H94.1828V13.368C94.1828 13.9 94.0661 14.3853 93.8328 14.824C93.6088 15.2533 93.2775 15.594 92.8388 15.846C92.4001 16.0887 91.8775 16.21 91.2708 16.21ZM98.2675 11.212C98.2675 10.6613 98.1555 10.2693 97.9315 10.036C97.7169 9.80267 97.3249 9.686 96.7555 9.686C96.2329 9.686 95.7009 9.82133 95.1595 10.092V8.706C95.3835 8.594 95.6775 8.50067 96.0415 8.426C96.4149 8.342 96.7789 8.3 97.1335 8.3C98.0949 8.3 98.8182 8.56133 99.3035 9.084C99.7982 9.60667 100.046 10.3533 100.046 11.324V16H98.2675V11.212ZM105.127 16.21C104.016 16.21 103.125 15.9953 102.453 15.566C101.781 15.1367 101.445 14.53 101.445 13.746C101.445 13.3633 101.557 13.018 101.781 12.71C102.005 12.402 102.294 12.1873 102.649 12.066C102.313 11.9073 102.037 11.6787 101.823 11.38C101.617 11.0813 101.515 10.7453 101.515 10.372C101.515 9.74667 101.729 9.24733 102.159 8.874C102.588 8.49133 103.223 8.3 104.063 8.3C104.324 8.3 104.576 8.31867 104.819 8.356C105.061 8.384 105.253 8.42133 105.393 8.468V9.854C105.271 9.798 105.113 9.756 104.917 9.728C104.73 9.7 104.562 9.686 104.413 9.686C103.694 9.686 103.335 9.952 103.335 10.484C103.335 10.7733 103.423 10.988 103.601 11.128C103.778 11.268 104.063 11.338 104.455 11.338H105.393V12.78H104.455C103.661 12.78 103.265 13.102 103.265 13.746C103.265 14.082 103.428 14.348 103.755 14.544C104.091 14.7307 104.548 14.824 105.127 14.824C105.855 14.824 106.387 14.6747 106.723 14.376C107.068 14.0773 107.241 13.6387 107.241 13.06V8.496H109.019V13.032C109.019 13.564 108.888 14.0727 108.627 14.558C108.375 15.034 107.955 15.4307 107.367 15.748C106.788 16.056 106.041 16.21 105.127 16.21Z" fill="white"/>
<defs>
<clipPath id="clip0_4836_7541">
<rect width="20" height="20" fill="white" transform="translate(0 1)"/>
</clipPath>
</defs>
</svg>
