<svg width="100" height="22" viewBox="0 0 100 22" fill="none" xmlns="http://www.w3.org/2000/svg">
<path d="M10.6523 15.6504C10.7397 15.7375 10.809 15.841 10.8563 15.9549C10.9037 16.0689 10.928 16.1911 10.928 16.3144C10.928 16.4378 10.9037 16.56 10.8563 16.674C10.809 16.7879 10.7397 16.8914 10.6523 16.9785L10.1882 17.4426C9.30886 18.3219 8.1162 18.816 6.8726 18.816C5.629 18.816 4.43633 18.3219 3.55697 17.4426C2.67761 16.5632 2.18359 15.3706 2.18359 14.1269C2.18359 12.8833 2.67761 11.6907 3.55697 10.8113L5.44135 8.92773C6.28626 8.08073 7.42305 7.58885 8.61886 7.55282C9.81468 7.5168 10.979 7.93937 11.8734 8.73398C11.9657 8.81606 12.041 8.91552 12.0949 9.02668C12.1488 9.13785 12.1802 9.25854 12.1875 9.38186C12.1948 9.50519 12.1777 9.62874 12.1372 9.74546C12.0967 9.86217 12.0336 9.96977 11.9515 10.0621C11.8694 10.1544 11.77 10.2297 11.6588 10.2836C11.5476 10.3375 11.4269 10.369 11.3036 10.3762C11.1803 10.3835 11.0567 10.3664 10.94 10.3259C10.8233 10.2854 10.7157 10.2223 10.6234 10.1402C10.0871 9.66392 9.38903 9.41053 8.67206 9.43188C7.95509 9.45323 7.27337 9.7477 6.76635 10.2551L4.88353 12.1363C4.356 12.6639 4.05964 13.3793 4.05964 14.1254C4.05964 14.8714 4.356 15.5869 4.88353 16.1145C5.41107 16.642 6.12655 16.9383 6.8726 16.9383C7.61864 16.9383 8.33413 16.642 8.86166 16.1145L9.32572 15.6504C9.41279 15.5632 9.51618 15.4941 9.63 15.4469C9.74381 15.3997 9.8658 15.3754 9.989 15.3754C10.1122 15.3754 10.2342 15.3997 10.348 15.4469C10.4618 15.4941 10.5652 15.5632 10.6523 15.6504ZM16.4398 4.55664C15.5597 3.67863 14.3673 3.18555 13.1242 3.18555C11.881 3.18555 10.6886 3.67863 9.80853 4.55664L9.34447 5.0207C9.16835 5.19682 9.06941 5.43569 9.06941 5.68476C9.06941 5.93383 9.16835 6.17271 9.34447 6.34883C9.52059 6.52495 9.75946 6.62389 10.0085 6.62389C10.2576 6.62389 10.4965 6.52495 10.6726 6.34883L11.1367 5.88476C11.6642 5.35723 12.3797 5.06087 13.1257 5.06087C13.8718 5.06087 14.5873 5.35723 15.1148 5.88476C15.6423 6.4123 15.9387 7.12778 15.9387 7.87383C15.9387 8.61987 15.6423 9.33536 15.1148 9.86289L13.2312 11.7473C12.7237 12.2544 12.0416 12.5485 11.3245 12.5692C10.6073 12.59 9.90934 12.3359 9.37338 11.859C9.28104 11.7769 9.17344 11.7138 9.05673 11.6733C8.94001 11.6328 8.81646 11.6157 8.69313 11.623C8.56981 11.6302 8.44912 11.6617 8.33795 11.7156C8.22679 11.7695 8.12733 11.8448 8.04525 11.9371C7.96318 12.0294 7.90009 12.137 7.8596 12.2538C7.8191 12.3705 7.802 12.494 7.80925 12.6173C7.81651 12.7407 7.84798 12.8614 7.90188 12.9725C7.95578 13.0837 8.03104 13.1832 8.12338 13.2652C9.01711 14.0597 10.1807 14.4825 11.3759 14.4472C12.5712 14.4119 13.7078 13.9212 14.5531 13.0754L16.4374 11.1918C17.3165 10.3119 17.8104 9.11921 17.8109 7.87548C17.8113 6.63176 17.3182 5.43868 16.4398 4.5582V4.55664Z" fill="white"/>
<path d="M28.84 11.464C28.84 10.456 29.1713 9.67667 29.834 9.126C30.506 8.57533 31.4113 8.3 32.55 8.3C33.6887 8.3 34.5893 8.57533 35.252 9.126C35.9147 9.67667 36.246 10.456 36.246 11.464V16H34.468V11.394C34.468 10.8247 34.3 10.4 33.964 10.12C33.6373 9.83067 33.166 9.686 32.55 9.686C31.934 9.686 31.458 9.826 31.122 10.106C30.786 10.386 30.618 10.8153 30.618 11.394V12.626C30.7393 12.43 30.9167 12.2713 31.15 12.15C31.3927 12.0287 31.6727 11.968 31.99 11.968H33.124V13.452H31.864C31.5 13.452 31.2013 13.5733 30.968 13.816C30.7347 14.0493 30.618 14.334 30.618 14.67V16H28.84V11.464ZM33.4238 7.488C32.9851 7.488 32.6678 7.376 32.4718 7.152C32.2665 6.928 32.1638 6.592 32.1638 6.144V5.332H33.7598V5.976C33.7598 6.12533 33.7878 6.228 33.8438 6.284C33.8998 6.33067 34.0025 6.354 34.1518 6.354H37.4838V7.488H33.4238ZM41.3338 16.21C40.1951 16.21 39.2945 15.8927 38.6318 15.258C37.9785 14.614 37.6518 13.676 37.6518 12.444C37.6518 11.5853 37.8198 10.848 38.1558 10.232C38.5011 9.60667 38.9911 9.13067 39.6258 8.804C40.2698 8.468 41.0258 8.3 41.8938 8.3C43.2658 8.3 44.2691 8.61733 44.9038 9.252C45.5385 9.88667 45.8558 10.7127 45.8558 11.73V16H44.0778V11.716C44.0778 11.0627 43.9051 10.5633 43.5598 10.218C43.2238 9.86333 42.6685 9.686 41.8938 9.686C41.1471 9.686 40.5545 9.92867 40.1158 10.414C39.6865 10.89 39.4718 11.5667 39.4718 12.444C39.4718 13.2467 39.6585 13.844 40.0318 14.236C40.4051 14.628 40.9418 14.824 41.6418 14.824C41.9871 14.824 42.3091 14.7773 42.6078 14.684V16.042C42.2438 16.154 41.8191 16.21 41.3338 16.21ZM50.0215 16.21C49.1908 16.21 48.5188 16 48.0055 15.58C47.5015 15.16 47.2495 14.5673 47.2495 13.802C47.2495 13.298 47.3755 12.8547 47.6275 12.472C47.8888 12.0893 48.2528 11.7907 48.7195 11.576C49.1955 11.3613 49.7508 11.254 50.3855 11.254C51.2908 11.254 52.0748 11.408 52.7375 11.716V11.38C52.7375 10.8013 52.5648 10.3767 52.2195 10.106C51.8835 9.826 51.3375 9.686 50.5815 9.686C50.1241 9.686 49.6715 9.73267 49.2235 9.826C48.7848 9.91933 48.4021 10.0453 48.0755 10.204V8.818C48.3741 8.678 48.7848 8.55667 49.3075 8.454C49.8395 8.35133 50.3575 8.3 50.8615 8.3C52.0748 8.3 52.9848 8.57533 53.5915 9.126C54.1981 9.67667 54.5015 10.414 54.5015 11.338V16H52.7375V13.116C52.1121 12.7987 51.3981 12.64 50.5955 12.64C50.0728 12.64 49.6808 12.7427 49.4195 12.948C49.1675 13.144 49.0415 13.4333 49.0415 13.816C49.0415 14.1613 49.1581 14.418 49.3915 14.586C49.6248 14.7447 49.9935 14.824 50.4975 14.824C50.8148 14.824 51.0901 14.7773 51.3235 14.684V16.042C50.9781 16.154 50.5441 16.21 50.0215 16.21ZM59.1098 16.21C58.5124 16.21 57.9244 16.1447 57.3458 16.014C56.7671 15.8833 56.2864 15.7013 55.9038 15.468V11.548H59.2638V12.99H57.6818V14.544C58.0271 14.7307 58.5031 14.824 59.1098 14.824C59.9311 14.824 60.5518 14.6 60.9718 14.152C61.3918 13.704 61.6018 13.0507 61.6018 12.192C61.6018 11.604 61.5084 11.128 61.3218 10.764C61.1351 10.4 60.8271 10.1293 60.3978 9.952C59.9684 9.77467 59.3898 9.686 58.6618 9.686C58.1858 9.686 57.7004 9.73733 57.2058 9.84C56.7204 9.93333 56.3144 10.0733 55.9878 10.26V8.874C56.3611 8.68733 56.8044 8.54733 57.3178 8.454C57.8404 8.35133 58.3911 8.3 58.9698 8.3C60.3884 8.3 61.4851 8.64067 62.2598 9.322C63.0344 9.994 63.4218 10.9507 63.4218 12.192C63.4218 13.4333 63.0484 14.4133 62.3018 15.132C61.5644 15.8507 60.5004 16.21 59.1098 16.21ZM65.2444 11.436L64.5444 10.274C65.0577 9.63 65.6457 9.14 66.3084 8.804C66.9804 8.468 67.755 8.3 68.6324 8.3C69.799 8.3 70.6904 8.56133 71.3064 9.084C71.9317 9.60667 72.2444 10.33 72.2444 11.254V16H70.4664V11.394C70.4664 10.8153 70.3124 10.386 70.0044 10.106C69.6964 9.826 69.239 9.686 68.6324 9.686C68.175 9.686 67.769 9.75133 67.4144 9.882C67.069 10.0127 66.747 10.2273 66.4484 10.526L67.0224 11.45V16H65.2444V11.436ZM76.4218 16.21C75.5912 16.21 74.9192 16 74.4058 15.58C73.9018 15.16 73.6498 14.5673 73.6498 13.802C73.6498 13.298 73.7758 12.8547 74.0278 12.472C74.2892 12.0893 74.6532 11.7907 75.1198 11.576C75.5958 11.3613 76.1512 11.254 76.7858 11.254C77.6912 11.254 78.4752 11.408 79.1378 11.716V11.38C79.1378 10.8013 78.9652 10.3767 78.6198 10.106C78.2838 9.826 77.7378 9.686 76.9818 9.686C76.5245 9.686 76.0718 9.73267 75.6238 9.826C75.1852 9.91933 74.8025 10.0453 74.4758 10.204V8.818C74.7745 8.678 75.1852 8.55667 75.7078 8.454C76.2398 8.35133 76.7578 8.3 77.2618 8.3C78.4752 8.3 79.3852 8.57533 79.9918 9.126C80.5985 9.67667 80.9018 10.414 80.9018 11.338V16H79.1378V13.116C78.5125 12.7987 77.7985 12.64 76.9958 12.64C76.4732 12.64 76.0812 12.7427 75.8198 12.948C75.5678 13.144 75.4418 13.4333 75.4418 13.816C75.4418 14.1613 75.5585 14.418 75.7918 14.586C76.0252 14.7447 76.3938 14.824 76.8978 14.824C77.2152 14.824 77.4905 14.7773 77.7238 14.684V16.042C77.3785 16.154 76.9445 16.21 76.4218 16.21ZM74.6461 6.354H80.9041V7.488H74.6461V6.354ZM82.3041 9.448H84.0821L85.7201 14.614C86.5041 14.614 87.1061 14.3947 87.5261 13.956C87.9555 13.508 88.1701 12.8733 88.1701 12.052C88.1701 11.2587 88.0255 10.666 87.7361 10.274C87.4468 9.882 86.9848 9.686 86.3501 9.686C86.0048 9.686 85.6828 9.73267 85.3841 9.826V8.468C85.7481 8.356 86.1728 8.3 86.6581 8.3C87.7501 8.3 88.5761 8.63133 89.1361 9.294C89.7055 9.95667 89.9901 10.876 89.9901 12.052C89.9901 12.8733 89.8081 13.5827 89.4441 14.18C89.0895 14.7773 88.6088 15.23 88.0021 15.538C87.3955 15.846 86.7235 16 85.9861 16H84.3761L82.3041 9.448ZM91.8088 11.436L91.1088 10.274C91.6222 9.63 92.2102 9.14 92.8728 8.804C93.5448 8.468 94.3195 8.3 95.1968 8.3C96.3635 8.3 97.2548 8.56133 97.8708 9.084C98.4962 9.60667 98.8088 10.33 98.8088 11.254V16H97.0308V11.394C97.0308 10.8153 96.8768 10.386 96.5688 10.106C96.2608 9.826 95.8035 9.686 95.1968 9.686C94.7395 9.686 94.3335 9.75133 93.9788 9.882C93.6335 10.0127 93.3115 10.2273 93.0128 10.526L93.5868 11.45V16H91.8088V11.436ZM95.2723 6.592C95.2723 6.2 95.375 5.906 95.5803 5.71C95.7856 5.50467 96.117 5.402 96.5743 5.402H99.6683V6.536H97.2883C97.1296 6.536 97.0223 6.56867 96.9663 6.634C96.901 6.69933 96.8683 6.81133 96.8683 6.97V7.488H95.2723V6.592Z" fill="white"/>
</svg>
