<svg width="24" height="24" viewBox="0 0 24 24" fill="none" xmlns="http://www.w3.org/2000/svg">
<path d="M11.9999 0.375C6.8376 0.375 2.6377 4.575 2.6377 9.7372C2.6377 14.8994 6.8376 19.0995 11.9999 19.0995C17.1623 19.0995 21.3622 14.8995 21.3622 9.7372C21.3622 4.57495 17.1623 0.375 11.9999 0.375ZM17.7948 8.47753L15.4956 10.8418L15.9656 14.1068C15.9838 14.2335 15.9671 14.3627 15.9173 14.4806C15.8674 14.5986 15.7864 14.7006 15.6828 14.7758C15.5792 14.8511 15.4571 14.8966 15.3295 14.9075C15.202 14.9184 15.0739 14.8943 14.959 14.8377L11.9999 13.3803L9.04063 14.8377C8.92577 14.8943 8.79764 14.9184 8.67007 14.9075C8.54251 14.8966 8.42035 14.851 8.31677 14.7758C8.21318 14.7005 8.13212 14.5984 8.08231 14.4804C8.0325 14.3625 8.01584 14.2332 8.03413 14.1065L8.50546 10.8416L6.20619 8.47753C6.11696 8.38577 6.05447 8.27138 6.02546 8.14671C5.99645 8.02204 6.00203 7.89182 6.04158 7.77009C6.08113 7.64835 6.15316 7.53973 6.24991 7.45592C6.34665 7.37211 6.46444 7.3163 6.59057 7.2945L9.83976 6.73289L11.378 3.81563C11.4377 3.70239 11.5271 3.6076 11.6367 3.54147C11.7464 3.47535 11.8719 3.4404 11.9999 3.4404C12.128 3.4404 12.2535 3.47535 12.3631 3.54147C12.4728 3.6076 12.5622 3.70239 12.6219 3.81563L14.1599 6.73298L17.4105 7.29455C17.5366 7.31634 17.6544 7.37215 17.7512 7.45596C17.8479 7.53977 17.92 7.64841 17.9595 7.77015C17.9991 7.89189 18.0046 8.02212 17.9756 8.1468C17.9466 8.27147 17.8841 8.38577 17.7948 8.47753ZM13.5796 8.05969L15.857 8.45316L14.2463 10.1093C14.1713 10.1865 14.1149 10.2799 14.0816 10.3823C14.0484 10.4847 14.0391 10.5934 14.0544 10.7L14.3838 12.987L12.3106 11.9658C12.2139 11.9182 12.1077 11.8934 11.9999 11.8934C11.8922 11.8934 11.7859 11.9182 11.6893 11.9658L9.61663 12.9865L9.94673 10.7C9.96212 10.5934 9.95283 10.4848 9.91957 10.3824C9.8863 10.28 9.82995 10.1866 9.75487 10.1094L8.14415 8.45311L10.4203 8.05969C10.5263 8.04136 10.6267 7.99892 10.7138 7.93566C10.8009 7.87239 10.8723 7.78997 10.9225 7.69477L11.9999 5.65106L13.0773 7.69481C13.1275 7.79002 13.1989 7.87243 13.286 7.93569C13.3731 7.99895 13.4736 8.04138 13.5796 8.05969Z" fill="#1BC5BD"/>
<path opacity="0.3" d="M17.7457 23.2566C17.8013 23.1538 17.8305 23.0387 17.8305 22.9218V18.7866C16.0931 19.9086 14.0688 20.5055 12.0007 20.5057C9.93249 20.5058 7.90819 19.9092 6.17065 18.7875V22.9218C6.17065 23.0387 6.1998 23.1538 6.25546 23.2566C6.31112 23.3594 6.39154 23.4467 6.48943 23.5106C6.58733 23.5745 6.69961 23.613 6.81612 23.6226C6.93263 23.6322 7.04969 23.6126 7.15672 23.5655L11.9999 21.4364L16.8445 23.5655C16.9515 23.6126 17.0685 23.6322 17.1851 23.6226C17.3016 23.613 17.4138 23.5745 17.5117 23.5106C17.6096 23.4467 17.69 23.3594 17.7457 23.2566Z" fill="#1BC5BD"/>
</svg>
