<svg width="19" height="18" viewBox="0 0 19 18" fill="none" xmlns="http://www.w3.org/2000/svg">
<path d="M9.5 0C4.5374 0 0.5 4.03745 0.5 9.00006C0.5 13.9627 4.5374 18 9.5 18C14.4626 18 18.5 13.9627 18.5 9.00006C18.5 4.03745 14.4626 0 9.5 0ZM9.5 16.3636C5.43964 16.3636 2.13636 13.0604 2.13636 9.00006C2.13636 4.93975 5.43964 1.63636 9.5 1.63636C13.5604 1.63636 16.8636 4.93975 16.8636 9.00006C16.8636 13.0604 13.5603 16.3636 9.5 16.3636Z" fill="#7E8299"/>
<path d="M9.49987 3.81812C8.89845 3.81812 8.40918 4.30772 8.40918 4.90952C8.40918 5.51077 8.89845 5.99993 9.49987 5.99993C10.1013 5.99993 10.5906 5.51077 10.5906 4.90952C10.5906 4.30772 10.1013 3.81812 9.49987 3.81812Z" fill="#7E8299"/>
<path d="M9.49982 7.63647C9.04797 7.63647 8.68164 8.0028 8.68164 8.45466V13.3637C8.68164 13.8156 9.04797 14.1819 9.49982 14.1819C9.95168 14.1819 10.318 13.8156 10.318 13.3637V8.45466C10.318 8.0028 9.95168 7.63647 9.49982 7.63647Z" fill="#7E8299"/>
</svg>
