<svg width="24" height="24" viewBox="0 0 24 24" fill="none" xmlns="http://www.w3.org/2000/svg">
<rect width="24" height="24" rx="6" fill="#1BC5BD"/>
<path d="M19.619 8.53587L10.2857 17.8692C10.2044 17.9508 10.1078 18.0155 10.0015 18.0597C9.8951 18.1038 9.78107 18.1266 9.66591 18.1266C9.55074 18.1266 9.43671 18.1038 9.33036 18.0597C9.224 18.0155 9.12741 17.9508 9.04611 17.8692L4.96278 13.7859C4.88139 13.7045 4.81682 13.6078 4.77278 13.5015C4.72873 13.3952 4.70605 13.2812 4.70605 13.1661C4.70605 13.051 4.72873 12.937 4.77278 12.8306C4.81682 12.7243 4.88139 12.6277 4.96278 12.5463C5.04417 12.4649 5.1408 12.4003 5.24714 12.3563C5.35349 12.3122 5.46747 12.2896 5.58257 12.2896C5.69768 12.2896 5.81166 12.3122 5.918 12.3563C6.02435 12.4003 6.12097 12.4649 6.20236 12.5463L9.66664 16.0106L18.3809 7.29774C18.5453 7.13336 18.7682 7.04102 19.0007 7.04102C19.2332 7.04102 19.4561 7.13336 19.6205 7.29774C19.7849 7.46212 19.8772 7.68507 19.8772 7.91753C19.8772 8.15 19.7849 8.37295 19.6205 8.53733L19.619 8.53587Z" fill="white"/>
</svg>
